<mxfile host="65bd71144e">
    <diagram id="yY9HqoVHTI33yjSp-JAM" name="Page-1">
        <mxGraphModel dx="1370" dy="666" grid="1" gridSize="10" guides="1" tooltips="1" connect="1" arrows="1" fold="1" page="1" pageScale="1" pageWidth="1400" pageHeight="850" background="none" math="0" shadow="0">
            <root>
                <mxCell id="0"/>
                <mxCell id="1" parent="0"/>
                <mxCell id="38" value="Users" style="shape=table;startSize=30;container=1;collapsible=0;childLayout=tableLayout;rounded=0;labelBackgroundColor=none;fontSize=13;fontColor=#FFFF33;spacing=2;swimlaneLine=1;fillColor=#647687;strokeColor=#314354;strokeWidth=2;shadow=0;swimlaneFillColor=none;" vertex="1" parent="1">
                    <mxGeometry x="140" y="64" width="178" height="170" as="geometry"/>
                </mxCell>
                <mxCell id="39" value="" style="shape=tableRow;horizontal=0;startSize=0;swimlaneHead=0;swimlaneBody=0;top=0;left=0;bottom=0;right=0;collapsible=0;dropTarget=0;fillColor=none;points=[[0,0.5],[1,0.5]];portConstraint=eastwest;rounded=0;labelBackgroundColor=none;fontSize=20;fontColor=#CCCC00;" vertex="1" parent="38">
                    <mxGeometry y="30" width="178" height="26" as="geometry"/>
                </mxCell>
                <mxCell id="40" value="&lt;font color=&quot;#ffffff&quot; style=&quot;font-size: 12px;&quot;&gt;id&lt;/font&gt;" style="shape=partialRectangle;html=1;whiteSpace=wrap;connectable=0;overflow=hidden;fillColor=none;top=0;left=0;bottom=0;right=0;pointerEvents=1;rounded=0;labelBackgroundColor=none;fontSize=12;fontColor=#CCCC00;" vertex="1" parent="39">
                    <mxGeometry width="89" height="26" as="geometry">
                        <mxRectangle width="89" height="26" as="alternateBounds"/>
                    </mxGeometry>
                </mxCell>
                <mxCell id="41" value="" style="shape=partialRectangle;html=1;whiteSpace=wrap;connectable=0;overflow=hidden;fillColor=none;top=0;left=0;bottom=0;right=0;pointerEvents=1;rounded=0;labelBackgroundColor=none;fontSize=20;fontColor=#CCCC00;" vertex="1" parent="39">
                    <mxGeometry x="89" width="89" height="26" as="geometry">
                        <mxRectangle width="89" height="26" as="alternateBounds"/>
                    </mxGeometry>
                </mxCell>
                <mxCell id="42" value="" style="shape=tableRow;horizontal=0;startSize=0;swimlaneHead=0;swimlaneBody=0;top=0;left=0;bottom=0;right=0;collapsible=0;dropTarget=0;fillColor=none;points=[[0,0.5],[1,0.5]];portConstraint=eastwest;rounded=0;labelBackgroundColor=none;fontSize=20;fontColor=#CCCC00;" vertex="1" parent="38">
                    <mxGeometry y="56" width="178" height="30" as="geometry"/>
                </mxCell>
                <mxCell id="43" value="email" style="shape=partialRectangle;html=1;whiteSpace=wrap;connectable=0;overflow=hidden;fillColor=none;top=0;left=0;bottom=0;right=0;pointerEvents=1;rounded=0;labelBackgroundColor=none;fontSize=12;fontColor=#FFFFFF;" vertex="1" parent="42">
                    <mxGeometry width="89" height="30" as="geometry">
                        <mxRectangle width="89" height="30" as="alternateBounds"/>
                    </mxGeometry>
                </mxCell>
                <mxCell id="44" value="" style="shape=partialRectangle;html=1;whiteSpace=wrap;connectable=0;overflow=hidden;fillColor=none;top=0;left=0;bottom=0;right=0;pointerEvents=1;rounded=0;labelBackgroundColor=none;fontSize=20;fontColor=#CCCC00;" vertex="1" parent="42">
                    <mxGeometry x="89" width="89" height="30" as="geometry">
                        <mxRectangle width="89" height="30" as="alternateBounds"/>
                    </mxGeometry>
                </mxCell>
                <mxCell id="45" value="" style="shape=tableRow;horizontal=0;startSize=0;swimlaneHead=0;swimlaneBody=0;top=0;left=0;bottom=0;right=0;collapsible=0;dropTarget=0;fillColor=none;points=[[0,0.5],[1,0.5]];portConstraint=eastwest;rounded=0;labelBackgroundColor=none;fontSize=20;fontColor=#CCCC00;" vertex="1" parent="38">
                    <mxGeometry y="86" width="178" height="27" as="geometry"/>
                </mxCell>
                <mxCell id="46" value="name" style="shape=partialRectangle;html=1;whiteSpace=wrap;connectable=0;overflow=hidden;fillColor=none;top=0;left=0;bottom=0;right=0;pointerEvents=1;rounded=0;labelBackgroundColor=none;fontSize=12;fontColor=#FFFFFF;" vertex="1" parent="45">
                    <mxGeometry width="89" height="27" as="geometry">
                        <mxRectangle width="89" height="27" as="alternateBounds"/>
                    </mxGeometry>
                </mxCell>
                <mxCell id="47" value="" style="shape=partialRectangle;html=1;whiteSpace=wrap;connectable=0;overflow=hidden;fillColor=none;top=0;left=0;bottom=0;right=0;pointerEvents=1;rounded=0;labelBackgroundColor=none;fontSize=20;fontColor=#CCCC00;strokeWidth=3;" vertex="1" parent="45">
                    <mxGeometry x="89" width="89" height="27" as="geometry">
                        <mxRectangle width="89" height="27" as="alternateBounds"/>
                    </mxGeometry>
                </mxCell>
                <mxCell id="48" value="" style="shape=tableRow;horizontal=0;startSize=0;swimlaneHead=0;swimlaneBody=0;top=0;left=0;bottom=0;right=0;collapsible=0;dropTarget=0;fillColor=none;points=[[0,0.5],[1,0.5]];portConstraint=eastwest;rounded=0;labelBackgroundColor=none;fontSize=20;fontColor=#CCCC00;" vertex="1" parent="38">
                    <mxGeometry y="113" width="178" height="27" as="geometry"/>
                </mxCell>
                <mxCell id="49" value="subscription" style="shape=partialRectangle;html=1;whiteSpace=wrap;connectable=0;overflow=hidden;fillColor=none;top=0;left=0;bottom=0;right=0;pointerEvents=1;rounded=0;labelBackgroundColor=none;fontSize=12;fontColor=#FFFFFF;" vertex="1" parent="48">
                    <mxGeometry width="89" height="27" as="geometry">
                        <mxRectangle width="89" height="27" as="alternateBounds"/>
                    </mxGeometry>
                </mxCell>
                <mxCell id="50" value="" style="shape=partialRectangle;html=1;whiteSpace=wrap;connectable=0;overflow=hidden;fillColor=none;top=0;left=0;bottom=0;right=0;pointerEvents=1;rounded=0;labelBackgroundColor=none;fontSize=20;fontColor=#CCCC00;" vertex="1" parent="48">
                    <mxGeometry x="89" width="89" height="27" as="geometry">
                        <mxRectangle width="89" height="27" as="alternateBounds"/>
                    </mxGeometry>
                </mxCell>
                <mxCell id="51" value="" style="shape=tableRow;horizontal=0;startSize=0;swimlaneHead=0;swimlaneBody=0;top=0;left=0;bottom=0;right=0;collapsible=0;dropTarget=0;fillColor=none;points=[[0,0.5],[1,0.5]];portConstraint=eastwest;rounded=0;labelBackgroundColor=none;fontSize=20;fontColor=#CCCC00;" vertex="1" parent="38">
                    <mxGeometry y="140" width="178" height="30" as="geometry"/>
                </mxCell>
                <mxCell id="52" value="created_at" style="shape=partialRectangle;html=1;connectable=0;overflow=hidden;fillColor=none;top=0;left=0;bottom=0;right=0;pointerEvents=1;rounded=0;labelBackgroundColor=none;fontSize=12;fontColor=#FFFFFF;" vertex="1" parent="51">
                    <mxGeometry width="89" height="30" as="geometry">
                        <mxRectangle width="89" height="30" as="alternateBounds"/>
                    </mxGeometry>
                </mxCell>
                <mxCell id="53" value="" style="shape=partialRectangle;html=1;whiteSpace=wrap;connectable=0;overflow=hidden;fillColor=none;top=0;left=0;bottom=0;right=0;pointerEvents=1;rounded=0;labelBackgroundColor=none;fontSize=20;fontColor=#CCCC00;" vertex="1" parent="51">
                    <mxGeometry x="89" width="89" height="30" as="geometry">
                        <mxRectangle width="89" height="30" as="alternateBounds"/>
                    </mxGeometry>
                </mxCell>
                <mxCell id="70" value="league_members" style="shape=table;startSize=30;container=1;collapsible=0;childLayout=tableLayout;rounded=0;labelBackgroundColor=none;fontSize=13;fontColor=#FFFF33;spacing=2;swimlaneLine=1;fillColor=#647687;strokeColor=#314354;strokeWidth=2;shadow=0;swimlaneFillColor=none;" vertex="1" parent="1">
                    <mxGeometry x="520" y="100" width="198" height="150" as="geometry"/>
                </mxCell>
                <mxCell id="71" value="" style="shape=tableRow;horizontal=0;startSize=0;swimlaneHead=0;swimlaneBody=0;top=0;left=0;bottom=0;right=0;collapsible=0;dropTarget=0;fillColor=none;points=[[0,0.5],[1,0.5]];portConstraint=eastwest;rounded=0;labelBackgroundColor=none;fontSize=20;fontColor=#CCCC00;" vertex="1" parent="70">
                    <mxGeometry y="30" width="198" height="28" as="geometry"/>
                </mxCell>
                <mxCell id="72" value="&lt;font color=&quot;#ffffff&quot; style=&quot;font-size: 12px;&quot;&gt;league_id&lt;/font&gt;" style="shape=partialRectangle;html=1;whiteSpace=wrap;connectable=0;overflow=hidden;fillColor=none;top=0;left=0;bottom=0;right=0;pointerEvents=1;rounded=0;labelBackgroundColor=none;fontSize=12;fontColor=#CCCC00;" vertex="1" parent="71">
                    <mxGeometry width="99" height="28" as="geometry">
                        <mxRectangle width="99" height="28" as="alternateBounds"/>
                    </mxGeometry>
                </mxCell>
                <mxCell id="73" value="" style="shape=partialRectangle;html=1;whiteSpace=wrap;connectable=0;overflow=hidden;fillColor=none;top=0;left=0;bottom=0;right=0;pointerEvents=1;rounded=0;labelBackgroundColor=none;fontSize=20;fontColor=#CCCC00;" vertex="1" parent="71">
                    <mxGeometry x="99" width="99" height="28" as="geometry">
                        <mxRectangle width="99" height="28" as="alternateBounds"/>
                    </mxGeometry>
                </mxCell>
                <mxCell id="74" value="" style="shape=tableRow;horizontal=0;startSize=0;swimlaneHead=0;swimlaneBody=0;top=0;left=0;bottom=0;right=0;collapsible=0;dropTarget=0;fillColor=none;points=[[0,0.5],[1,0.5]];portConstraint=eastwest;rounded=0;labelBackgroundColor=none;fontSize=20;fontColor=#CCCC00;" vertex="1" parent="70">
                    <mxGeometry y="58" width="198" height="33" as="geometry"/>
                </mxCell>
                <mxCell id="75" value="user_id" style="shape=partialRectangle;html=1;whiteSpace=wrap;connectable=0;overflow=hidden;fillColor=none;top=0;left=0;bottom=0;right=0;pointerEvents=1;rounded=0;labelBackgroundColor=none;fontSize=12;fontColor=#FFFFFF;" vertex="1" parent="74">
                    <mxGeometry width="99" height="33" as="geometry">
                        <mxRectangle width="99" height="33" as="alternateBounds"/>
                    </mxGeometry>
                </mxCell>
                <mxCell id="76" value="" style="shape=partialRectangle;html=1;whiteSpace=wrap;connectable=0;overflow=hidden;fillColor=none;top=0;left=0;bottom=0;right=0;pointerEvents=1;rounded=0;labelBackgroundColor=none;fontSize=20;fontColor=#CCCC00;" vertex="1" parent="74">
                    <mxGeometry x="99" width="99" height="33" as="geometry">
                        <mxRectangle width="99" height="33" as="alternateBounds"/>
                    </mxGeometry>
                </mxCell>
                <mxCell id="77" value="" style="shape=tableRow;horizontal=0;startSize=0;swimlaneHead=0;swimlaneBody=0;top=0;left=0;bottom=0;right=0;collapsible=0;dropTarget=0;fillColor=none;points=[[0,0.5],[1,0.5]];portConstraint=eastwest;rounded=0;labelBackgroundColor=none;fontSize=20;fontColor=#CCCC00;" vertex="1" parent="70">
                    <mxGeometry y="91" width="198" height="30" as="geometry"/>
                </mxCell>
                <mxCell id="78" value="nickname" style="shape=partialRectangle;html=1;whiteSpace=wrap;connectable=0;overflow=hidden;fillColor=none;top=0;left=0;bottom=0;right=0;pointerEvents=1;rounded=0;labelBackgroundColor=none;fontSize=12;fontColor=#FFFFFF;" vertex="1" parent="77">
                    <mxGeometry width="99" height="30" as="geometry">
                        <mxRectangle width="99" height="30" as="alternateBounds"/>
                    </mxGeometry>
                </mxCell>
                <mxCell id="79" value="" style="shape=partialRectangle;html=1;whiteSpace=wrap;connectable=0;overflow=hidden;fillColor=none;top=0;left=0;bottom=0;right=0;pointerEvents=1;rounded=0;labelBackgroundColor=none;fontSize=20;fontColor=#CCCC00;strokeWidth=3;" vertex="1" parent="77">
                    <mxGeometry x="99" width="99" height="30" as="geometry">
                        <mxRectangle width="99" height="30" as="alternateBounds"/>
                    </mxGeometry>
                </mxCell>
                <mxCell id="80" value="" style="shape=tableRow;horizontal=0;startSize=0;swimlaneHead=0;swimlaneBody=0;top=0;left=0;bottom=0;right=0;collapsible=0;dropTarget=0;fillColor=none;points=[[0,0.5],[1,0.5]];portConstraint=eastwest;rounded=0;labelBackgroundColor=none;fontSize=20;fontColor=#CCCC00;" vertex="1" parent="70">
                    <mxGeometry y="121" width="198" height="29" as="geometry"/>
                </mxCell>
                <mxCell id="81" value="joined_at" style="shape=partialRectangle;html=1;whiteSpace=wrap;connectable=0;overflow=hidden;fillColor=none;top=0;left=0;bottom=0;right=0;pointerEvents=1;rounded=0;labelBackgroundColor=none;fontSize=12;fontColor=#FFFFFF;" vertex="1" parent="80">
                    <mxGeometry width="99" height="29" as="geometry">
                        <mxRectangle width="99" height="29" as="alternateBounds"/>
                    </mxGeometry>
                </mxCell>
                <mxCell id="82" value="" style="shape=partialRectangle;html=1;whiteSpace=wrap;connectable=0;overflow=hidden;fillColor=none;top=0;left=0;bottom=0;right=0;pointerEvents=1;rounded=0;labelBackgroundColor=none;fontSize=20;fontColor=#CCCC00;" vertex="1" parent="80">
                    <mxGeometry x="99" width="99" height="29" as="geometry">
                        <mxRectangle width="99" height="29" as="alternateBounds"/>
                    </mxGeometry>
                </mxCell>
                <mxCell id="89" value="" style="edgeStyle=segmentEdgeStyle;endArrow=classic;html=1;curved=0;rounded=0;endSize=8;startSize=8;sourcePerimeterSpacing=0;targetPerimeterSpacing=0;fontSize=12;fontColor=#FFFF33;exitX=0;exitY=0.5;exitDx=0;exitDy=0;entryX=1;entryY=0.5;entryDx=0;entryDy=0;" edge="1" parent="1" source="74" target="39">
                    <mxGeometry width="100" relative="1" as="geometry">
                        <mxPoint x="410" y="150" as="sourcePoint"/>
                        <mxPoint x="510" y="190" as="targetPoint"/>
                        <Array as="points">
                            <mxPoint x="390" y="175"/>
                            <mxPoint x="390" y="107"/>
                        </Array>
                    </mxGeometry>
                </mxCell>
                <mxCell id="91" value="leagues" style="shape=table;startSize=30;container=1;collapsible=0;childLayout=tableLayout;rounded=0;labelBackgroundColor=none;fontSize=13;fontColor=#FFFF33;spacing=2;swimlaneLine=1;fillColor=#647687;strokeColor=#314354;strokeWidth=2;shadow=0;swimlaneFillColor=none;" vertex="1" parent="1">
                    <mxGeometry x="140" y="315" width="190" height="221" as="geometry"/>
                </mxCell>
                <mxCell id="92" value="" style="shape=tableRow;horizontal=0;startSize=0;swimlaneHead=0;swimlaneBody=0;top=0;left=0;bottom=0;right=0;collapsible=0;dropTarget=0;fillColor=none;points=[[0,0.5],[1,0.5]];portConstraint=eastwest;rounded=0;labelBackgroundColor=none;fontSize=20;fontColor=#CCCC00;" vertex="1" parent="91">
                    <mxGeometry y="30" width="190" height="26" as="geometry"/>
                </mxCell>
                <mxCell id="93" value="&lt;font color=&quot;#ffffff&quot; style=&quot;font-size: 12px;&quot;&gt;id&lt;/font&gt;" style="shape=partialRectangle;html=1;whiteSpace=wrap;connectable=0;overflow=hidden;fillColor=none;top=0;left=0;bottom=0;right=0;pointerEvents=1;rounded=0;labelBackgroundColor=none;fontSize=12;fontColor=#CCCC00;" vertex="1" parent="92">
                    <mxGeometry width="95" height="26" as="geometry">
                        <mxRectangle width="95" height="26" as="alternateBounds"/>
                    </mxGeometry>
                </mxCell>
                <mxCell id="94" value="" style="shape=partialRectangle;html=1;whiteSpace=wrap;connectable=0;overflow=hidden;fillColor=none;top=0;left=0;bottom=0;right=0;pointerEvents=1;rounded=0;labelBackgroundColor=none;fontSize=20;fontColor=#CCCC00;" vertex="1" parent="92">
                    <mxGeometry x="95" width="95" height="26" as="geometry">
                        <mxRectangle width="95" height="26" as="alternateBounds"/>
                    </mxGeometry>
                </mxCell>
                <mxCell id="95" value="" style="shape=tableRow;horizontal=0;startSize=0;swimlaneHead=0;swimlaneBody=0;top=0;left=0;bottom=0;right=0;collapsible=0;dropTarget=0;fillColor=none;points=[[0,0.5],[1,0.5]];portConstraint=eastwest;rounded=0;labelBackgroundColor=none;fontSize=20;fontColor=#CCCC00;" vertex="1" parent="91">
                    <mxGeometry y="56" width="190" height="30" as="geometry"/>
                </mxCell>
                <mxCell id="96" value="name" style="shape=partialRectangle;html=1;whiteSpace=wrap;connectable=0;overflow=hidden;fillColor=none;top=0;left=0;bottom=0;right=0;pointerEvents=1;rounded=0;labelBackgroundColor=none;fontSize=12;fontColor=#FFFFFF;" vertex="1" parent="95">
                    <mxGeometry width="95" height="30" as="geometry">
                        <mxRectangle width="95" height="30" as="alternateBounds"/>
                    </mxGeometry>
                </mxCell>
                <mxCell id="97" value="" style="shape=partialRectangle;html=1;whiteSpace=wrap;connectable=0;overflow=hidden;fillColor=none;top=0;left=0;bottom=0;right=0;pointerEvents=1;rounded=0;labelBackgroundColor=none;fontSize=20;fontColor=#CCCC00;" vertex="1" parent="95">
                    <mxGeometry x="95" width="95" height="30" as="geometry">
                        <mxRectangle width="95" height="30" as="alternateBounds"/>
                    </mxGeometry>
                </mxCell>
                <mxCell id="98" value="" style="shape=tableRow;horizontal=0;startSize=0;swimlaneHead=0;swimlaneBody=0;top=0;left=0;bottom=0;right=0;collapsible=0;dropTarget=0;fillColor=none;points=[[0,0.5],[1,0.5]];portConstraint=eastwest;rounded=0;labelBackgroundColor=none;fontSize=20;fontColor=#CCCC00;" vertex="1" parent="91">
                    <mxGeometry y="86" width="190" height="27" as="geometry"/>
                </mxCell>
                <mxCell id="99" value="selected_league" style="shape=partialRectangle;html=1;whiteSpace=wrap;connectable=0;overflow=hidden;fillColor=none;top=0;left=0;bottom=0;right=0;pointerEvents=1;rounded=0;labelBackgroundColor=none;fontSize=12;fontColor=#FFFFFF;" vertex="1" parent="98">
                    <mxGeometry width="95" height="27" as="geometry">
                        <mxRectangle width="95" height="27" as="alternateBounds"/>
                    </mxGeometry>
                </mxCell>
                <mxCell id="100" value="" style="shape=partialRectangle;html=1;whiteSpace=wrap;connectable=0;overflow=hidden;fillColor=none;top=0;left=0;bottom=0;right=0;pointerEvents=1;rounded=0;labelBackgroundColor=none;fontSize=20;fontColor=#CCCC00;strokeWidth=3;" vertex="1" parent="98">
                    <mxGeometry x="95" width="95" height="27" as="geometry">
                        <mxRectangle width="95" height="27" as="alternateBounds"/>
                    </mxGeometry>
                </mxCell>
                <mxCell id="101" value="" style="shape=tableRow;horizontal=0;startSize=0;swimlaneHead=0;swimlaneBody=0;top=0;left=0;bottom=0;right=0;collapsible=0;dropTarget=0;fillColor=none;points=[[0,0.5],[1,0.5]];portConstraint=eastwest;rounded=0;labelBackgroundColor=none;fontSize=20;fontColor=#CCCC00;" vertex="1" parent="91">
                    <mxGeometry y="113" width="190" height="27" as="geometry"/>
                </mxCell>
                <mxCell id="102" value="admin_id" style="shape=partialRectangle;html=1;whiteSpace=wrap;connectable=0;overflow=hidden;fillColor=none;top=0;left=0;bottom=0;right=0;pointerEvents=1;rounded=0;labelBackgroundColor=none;fontSize=12;fontColor=#FFFFFF;" vertex="1" parent="101">
                    <mxGeometry width="95" height="27" as="geometry">
                        <mxRectangle width="95" height="27" as="alternateBounds"/>
                    </mxGeometry>
                </mxCell>
                <mxCell id="103" value="" style="shape=partialRectangle;html=1;whiteSpace=wrap;connectable=0;overflow=hidden;fillColor=none;top=0;left=0;bottom=0;right=0;pointerEvents=1;rounded=0;labelBackgroundColor=none;fontSize=20;fontColor=#CCCC00;" vertex="1" parent="101">
                    <mxGeometry x="95" width="95" height="27" as="geometry">
                        <mxRectangle width="95" height="27" as="alternateBounds"/>
                    </mxGeometry>
                </mxCell>
                <mxCell id="104" style="shape=tableRow;horizontal=0;startSize=0;swimlaneHead=0;swimlaneBody=0;top=0;left=0;bottom=0;right=0;collapsible=0;dropTarget=0;fillColor=none;points=[[0,0.5],[1,0.5]];portConstraint=eastwest;rounded=0;labelBackgroundColor=none;fontSize=20;fontColor=#CCCC00;" vertex="1" parent="91">
                    <mxGeometry y="140" width="190" height="27" as="geometry"/>
                </mxCell>
                <mxCell id="105" value="invite_code" style="shape=partialRectangle;html=1;whiteSpace=wrap;connectable=0;overflow=hidden;fillColor=none;top=0;left=0;bottom=0;right=0;pointerEvents=1;rounded=0;labelBackgroundColor=none;fontSize=12;fontColor=#FFFFFF;" vertex="1" parent="104">
                    <mxGeometry width="95" height="27" as="geometry">
                        <mxRectangle width="95" height="27" as="alternateBounds"/>
                    </mxGeometry>
                </mxCell>
                <mxCell id="106" style="shape=partialRectangle;html=1;whiteSpace=wrap;connectable=0;overflow=hidden;fillColor=none;top=0;left=0;bottom=0;right=0;pointerEvents=1;rounded=0;labelBackgroundColor=none;fontSize=20;fontColor=#CCCC00;" vertex="1" parent="104">
                    <mxGeometry x="95" width="95" height="27" as="geometry">
                        <mxRectangle width="95" height="27" as="alternateBounds"/>
                    </mxGeometry>
                </mxCell>
                <mxCell id="107" style="shape=tableRow;horizontal=0;startSize=0;swimlaneHead=0;swimlaneBody=0;top=0;left=0;bottom=0;right=0;collapsible=0;dropTarget=0;fillColor=none;points=[[0,0.5],[1,0.5]];portConstraint=eastwest;rounded=0;labelBackgroundColor=none;fontSize=20;fontColor=#CCCC00;" vertex="1" parent="91">
                    <mxGeometry y="167" width="190" height="27" as="geometry"/>
                </mxCell>
                <mxCell id="108" value="max_members" style="shape=partialRectangle;html=1;whiteSpace=wrap;connectable=0;overflow=hidden;fillColor=none;top=0;left=0;bottom=0;right=0;pointerEvents=1;rounded=0;labelBackgroundColor=none;fontSize=12;fontColor=#FFFFFF;" vertex="1" parent="107">
                    <mxGeometry width="95" height="27" as="geometry">
                        <mxRectangle width="95" height="27" as="alternateBounds"/>
                    </mxGeometry>
                </mxCell>
                <mxCell id="109" style="shape=partialRectangle;html=1;whiteSpace=wrap;connectable=0;overflow=hidden;fillColor=none;top=0;left=0;bottom=0;right=0;pointerEvents=1;rounded=0;labelBackgroundColor=none;fontSize=20;fontColor=#CCCC00;" vertex="1" parent="107">
                    <mxGeometry x="95" width="95" height="27" as="geometry">
                        <mxRectangle width="95" height="27" as="alternateBounds"/>
                    </mxGeometry>
                </mxCell>
                <mxCell id="110" style="shape=tableRow;horizontal=0;startSize=0;swimlaneHead=0;swimlaneBody=0;top=0;left=0;bottom=0;right=0;collapsible=0;dropTarget=0;fillColor=none;points=[[0,0.5],[1,0.5]];portConstraint=eastwest;rounded=0;labelBackgroundColor=none;fontSize=20;fontColor=#CCCC00;" vertex="1" parent="91">
                    <mxGeometry y="194" width="190" height="27" as="geometry"/>
                </mxCell>
                <mxCell id="111" value="created_at" style="shape=partialRectangle;html=1;whiteSpace=wrap;connectable=0;overflow=hidden;fillColor=none;top=0;left=0;bottom=0;right=0;pointerEvents=1;rounded=0;labelBackgroundColor=none;fontSize=12;fontColor=#FFFFFF;" vertex="1" parent="110">
                    <mxGeometry width="95" height="27" as="geometry">
                        <mxRectangle width="95" height="27" as="alternateBounds"/>
                    </mxGeometry>
                </mxCell>
                <mxCell id="112" style="shape=partialRectangle;html=1;whiteSpace=wrap;connectable=0;overflow=hidden;fillColor=none;top=0;left=0;bottom=0;right=0;pointerEvents=1;rounded=0;labelBackgroundColor=none;fontSize=20;fontColor=#CCCC00;" vertex="1" parent="110">
                    <mxGeometry x="95" width="95" height="27" as="geometry">
                        <mxRectangle width="95" height="27" as="alternateBounds"/>
                    </mxGeometry>
                </mxCell>
                <mxCell id="119" value="" style="edgeStyle=segmentEdgeStyle;endArrow=classic;html=1;curved=0;rounded=0;endSize=8;startSize=8;sourcePerimeterSpacing=0;targetPerimeterSpacing=0;fontSize=12;fontColor=#FFFF33;exitX=0;exitY=0.5;exitDx=0;exitDy=0;entryX=1;entryY=0.5;entryDx=0;entryDy=0;" edge="1" parent="1" source="71" target="92">
                    <mxGeometry width="100" relative="1" as="geometry">
                        <mxPoint x="550" y="204.5" as="sourcePoint"/>
                        <mxPoint x="410" y="383" as="targetPoint"/>
                        <Array as="points">
                            <mxPoint x="440" y="144"/>
                            <mxPoint x="440" y="383"/>
                        </Array>
                    </mxGeometry>
                </mxCell>
            </root>
        </mxGraphModel>
    </diagram>
</mxfile>